<svg width="20" height="20" viewBox="0 0 20 20" fill="none" xmlns="http://www.w3.org/2000/svg">
<path d="M10 0C10.9167 0 11.8021 0.118056 12.6562 0.354167C13.5104 0.590278 14.3056 0.927083 15.0417 1.36458C15.7778 1.80208 16.4514 2.32292 17.0625 2.92708C17.6736 3.53125 18.1944 4.20486 18.625 4.94792C19.0556 5.69097 19.3924 6.48958 19.6354 7.34375C19.8785 8.19792 20 9.08333 20 10C20 10.9167 19.8819 11.8021 19.6458 12.6562C19.4097 13.5104 19.0729 14.3056 18.6354 15.0417C18.1979 15.7778 17.6771 16.4514 17.0729 17.0625C16.4688 17.6736 15.7951 18.1944 15.0521 18.625C14.309 19.0556 13.5104 19.3924 12.6562 19.6354C11.8021 19.8785 10.9167 20 10 20C9.08333 20 8.19792 19.8819 7.34375 19.6458C6.48958 19.4097 5.69444 19.0729 4.95833 18.6354C4.22222 18.1979 3.54861 17.6771 2.9375 17.0729C2.32639 16.4688 1.80556 15.7951 1.375 15.0521C0.944444 14.309 0.607639 13.5139 0.364583 12.6667C0.121528 11.8194 0 10.9306 0 10C0 9.08333 0.118056 8.19792 0.354167 7.34375C0.590278 6.48958 0.927083 5.69444 1.36458 4.95833C1.80208 4.22222 2.32292 3.54861 2.92708 2.9375C3.53125 2.32639 4.20486 1.80556 4.94792 1.375C5.69097 0.944444 6.48611 0.607639 7.33333 0.364583C8.18056 0.121528 9.06944 0 10 0ZM16 9.33333H10.6667V4H9.33333V9.33333H4V10.6667H9.33333V16H10.6667V10.6667H16V9.33333Z" fill="#003D00"/>
</svg>
