<svg width="21" height="21" viewBox="0 0 21 21" fill="none" xmlns="http://www.w3.org/2000/svg">
<path d="M9.99896 20.1423C7.34708 20.104 4.81901 19.0138 2.97091 17.1116C1.12281 15.2093 0.106072 12.6508 0.144356 9.99896C0.163312 8.68587 0.440712 7.38938 0.96072 6.18351C1.48073 4.97763 2.23316 3.88599 3.17505 2.9709C5.07729 1.12281 7.63577 0.106063 10.2877 0.144347C12.9396 0.182631 15.4676 1.27281 17.3157 3.17504C19.1638 5.07728 20.1806 7.63577 20.1423 10.2877C20.1233 11.6007 19.8459 12.8972 19.3259 14.1031C18.8059 15.309 18.0535 16.4006 17.1116 17.3157C16.1697 18.2308 15.0568 18.9514 13.8364 19.4364C12.616 19.9214 11.312 20.1612 9.99896 20.1423ZM10.0278 18.1425C12.1493 18.1731 14.1961 17.3597 15.7179 15.8812C17.2397 14.4027 18.1119 12.3803 18.1425 10.2588C18.1731 8.13727 17.3597 6.09049 15.8812 4.5687C14.4028 3.04691 12.3803 2.17477 10.2588 2.14414C8.13728 2.11351 6.0905 2.92691 4.5687 4.40538C3.04691 5.88386 2.17477 7.90631 2.14415 10.0278C2.11352 12.1493 2.92691 14.1961 4.40539 15.7179C5.88387 17.2397 7.90632 18.1118 10.0278 18.1425ZM12.2297 4.1728L6.14373 10.0856L12.0565 16.1715L13.4766 14.7919L8.94344 10.126L13.6094 5.59286L12.2297 4.1728Z" fill="white"/>
</svg>
