<svg width="80" height="80" viewBox="0 0 80 80" fill="none" xmlns="http://www.w3.org/2000/svg">
<rect width="80" height="80" rx="16" fill="#CBD976" fill-opacity="0.99"/>
<path d="M39.5 19C37.5042 19 35.5902 19.991 34.179 21.755C32.7678 23.519 31.975 25.9116 31.975 28.4062H36.275C36.275 27.3371 36.6148 26.3117 37.2196 25.5557C37.8244 24.7997 38.6447 24.375 39.5 24.375C40.3553 24.375 41.1756 24.7997 41.7804 25.5557C42.3852 26.3117 42.725 27.3371 42.725 28.4062C42.725 29.4754 42.3852 30.5008 41.7804 31.2568C41.1756 32.0128 40.3553 32.4375 39.5 32.4375C38.3175 32.4375 37.35 33.6469 37.35 35.125V39.8281L18.86 57.1625C18.499 57.5009 18.2323 57.9728 18.0978 58.5112C17.9632 59.0496 17.9676 59.6272 18.1103 60.1624C18.253 60.6975 18.5268 61.1629 18.8929 61.4927C19.2589 61.8225 19.6988 62 20.15 62H58.85C59.3012 62 59.7411 61.8225 60.1071 61.4927C60.4732 61.1629 60.747 60.6975 60.8897 60.1624C61.0324 59.6272 61.0368 59.0496 60.9022 58.5112C60.7677 57.9728 60.501 57.5009 60.14 57.1625L41.65 39.8281V37.4094C43.2015 36.8312 44.5625 35.6429 45.5308 34.021C46.4991 32.399 47.0231 30.43 47.025 28.4062C47.025 25.9116 46.2322 23.519 44.821 21.755C43.4098 19.991 41.4958 19 39.5 19ZM39.5 44.5312L52.4 56.625H26.6L39.5 44.5312Z" fill="black"/>
</svg>
