<svg width="80" height="80" viewBox="0 0 80 80" fill="none" xmlns="http://www.w3.org/2000/svg">
<rect width="80" height="80" rx="16" fill="#78D976" fill-opacity="0.99"/>
<path d="M60.8228 35.5485C59.0824 32.969 56.2626 31.0712 52.9504 30.25C49.6382 29.4288 46.0886 29.7476 43.0404 31.1399V20.1184H37.9596V31.1399C34.9114 29.7476 31.3618 29.4288 28.0496 30.25C24.7374 31.0712 21.9176 32.969 20.1772 35.5485C15.0965 42.1614 27.7982 62 32.8789 62C37.9596 62 37.9596 59.7957 40.5 59.7957C43.0404 59.7957 43.0404 62 48.1211 62C53.2018 62 65.9035 42.1614 60.8228 35.5485ZM56.3772 42.999C54.8022 48.4436 51.7029 53.4473 47.3589 57.5914C46.8509 57.5914 46.2666 57.371 45.8347 57.0403C44.3248 55.981 42.4418 55.4031 40.5 55.4031C38.5582 55.4031 36.6752 55.981 35.1653 57.0403C34.7334 57.371 34.1491 57.5914 33.6411 57.5914C29.285 53.4612 26.1853 48.4531 24.6228 43.021C23.9877 41.4119 23.8607 39.6705 24.3942 38.0173C25.1172 36.8987 26.1617 35.9615 27.426 35.2971C28.6903 34.6327 30.1313 34.2637 31.6088 34.2259C33.0314 34.2479 34.4286 34.5345 35.6987 35.0856L37.9596 36.0775H43.0404L45.3013 35.0856C46.5714 34.5345 47.9686 34.2479 49.3912 34.2259C52.3888 34.292 55.1324 35.7248 56.6058 37.9952C57.1393 39.6485 57.0123 41.3898 56.3772 42.999ZM37.9596 24.527C23.6829 31.2942 20.4566 21.8378 20.4566 21.8378C20.4566 21.8378 27.214 13.9243 37.9596 24.527Z" fill="black"/>
</svg>
